Coordinates
version=1
nRows=14
nColumns=24
inDegrees=yes

Units are S.I. units (second, meters, Newtons, ...)
Angles are in degrees.

endheader
time	pelvis_tilt	pelvis_list	pelvis_rotation	pelvis_tx	pelvis_ty	pelvis_tz	hip_flexion_r	hip_adduction_r	hip_rotation_r	knee_angle_r	ankle_angle_r	subtalar_angle_r	mtp_angle_r	hip_flexion_l	hip_adduction_l	hip_rotation_l	knee_angle_l	ankle_angle_l	subtalar_angle_l	mtp_angle_l	lumbar_extension	lumbar_bending	lumbar_rotation
      6.30000000	     -1.87647120	     -3.40042111	      2.15103824	     -1.50914964	      0.70711226	      0.11268018	      4.82856185	      9.83976752	     15.12446944	     -8.93262363	     12.58073917	    -14.38955590	      0.00000000	     23.25635497	     -0.29593538	     -0.75446308	    -67.51196936	      3.23777844	     -3.75795065	      0.00000000	    -13.16453928	      4.66908931	     -7.52009591
      6.31000000	     -1.89828791	     -3.23017115	      1.77836693	     -1.50031466	      0.70740752	      0.11221147	      3.76474654	      9.58654852	     15.67445041	     -8.43736200	     12.99042159	    -14.36774542	      0.00000000	     24.70331851	      0.07047548	     -0.79046963	    -66.61607587	      4.19586638	     -5.51929010	      0.00000000	    -13.48009638	      4.55514597	     -6.96970082
      6.32000000	     -1.90386351	     -3.03020851	      1.34273067	     -1.49154669	      0.70763666	      0.11180700	      2.71318301	      9.29656866	     16.27774996	     -7.98550135	     13.40205258	    -14.36912414	      0.00000000	     25.96123604	      0.39234419	     -0.88012000	    -65.27419359	      4.89900391	     -7.25225422	      0.00000000	    -13.83888057	      4.38295150	     -6.35601431
      6.33000000	     -1.90080499	     -2.83272034	      0.89222985	     -1.48285274	      0.70776225	      0.11140114	      1.68887760	      8.99935613	     16.85435780	     -7.57919013	     13.81097745	    -14.36660016	      0.00000000	     27.04710698	      0.66468952	     -0.95211716	    -63.51292397	      5.38631259	     -8.90562418	      0.00000000	    -14.23627093	      4.21722126	     -5.75461417
      6.34000000	     -1.64817238	     -2.62559135	      0.39893930	     -1.47418770	      0.70809509	      0.11105789	      0.39684077	      8.68015705	     17.47860935	     -7.16760300	     14.18012001	    -14.40926209	      0.00000000	     27.64649142	      0.87448116	     -1.03929234	    -61.28282460	      5.78035809	    -10.34487376	      0.00000000	    -14.97936412	      4.00963104	     -5.09942762
      6.35000000	     -1.81365255	     -2.49735396	      0.01183850	     -1.46558938	      0.70775321	      0.11052448	     -0.35772221	      8.43351213	     17.90809232	     -6.88930701	     14.63659351	    -14.31310912	      0.00000000	     28.58441233	      1.07367885	     -0.87777913	    -58.71705524	      5.97514360	    -11.67217619	      0.00000000	    -15.17908125	      3.93087370	     -4.65161659
      6.36000000	     -1.90925499	     -2.39989982	     -0.46933901	     -1.45697011	      0.70740308	      0.11005439	     -1.13945760	      8.22030990	     18.31117967	     -6.70661196	     15.13654424	    -14.14081627	      0.00000000	     29.21351497	      1.16883095	     -0.73810410	    -55.69394271	      6.09270611	    -12.79720027	      0.00000000	    -15.45916031	      3.89266730	     -4.07356474
      6.37000000	     -1.85641389	     -2.32819300	     -0.99483260	     -1.44829513	      0.70712348	      0.10966440	     -2.07098128	      8.02429903	     18.61718492	     -6.54393401	     15.66872390	    -13.81593144	      0.00000000	     29.44159189	      1.16813429	     -0.63774119	    -52.20686608	      6.21227958	    -13.78035687	      0.00000000	    -15.94787771	      3.84213020	     -3.54850695
      6.38000000	     -1.68933843	     -2.29969174	     -1.47234758	     -1.43960336	      0.70689024	      0.10911353	     -3.08137775	      7.85821140	     18.81509645	     -6.47602162	     16.25539902	    -13.35782403	      0.00000000	     29.30383986	      1.19975020	     -0.23791730	    -48.27449436	      6.29495670	    -14.45725455	      0.00000000	    -16.58605612	      3.85720660	     -2.93186805
      6.39000000	     -1.63692805	     -2.31010583	     -1.96894178	     -1.43068339	      0.70642066	      0.10861322	     -3.96264393	      7.73296503	     18.97234886	     -6.45424063	     16.81403379	    -12.89413518	      0.00000000	     29.02593990	      1.16034706	      0.27472051	    -43.90291663	      6.38862074	    -14.87647893	      0.00000000	    -16.99668151	      3.89242180	     -2.38990500
      6.40000000	     -1.56955664	     -2.37999356	     -2.50406724	     -1.42161964	      0.70584002	      0.10810822	     -4.84150110	      7.66101698	     19.08575670	     -6.49334670	     17.39189350	    -12.39450771	      0.00000000	     28.45969774	      1.04042717	      0.94066689	    -39.09523062	      6.47472162	    -15.19204440	      0.00000000	    -17.41129712	      3.98844158	     -1.77519581
      6.41000000	     -1.39396447	     -2.50799226	     -3.04367989	     -1.41232759	      0.70530720	      0.10758536	     -5.83637877	      7.63019497	     19.11308599	     -6.57876487	     17.93216367	    -11.78338767	      0.00000000	     27.47279360	      0.85911965	      1.91219821	    -33.84702956	      6.43573021	    -15.41930139	      0.00000000	    -17.90955368	      4.12545498	     -1.15156842
      6.42000000	     -1.28925117	     -2.71395527	     -3.66166624	     -1.40270552	      0.70455627	      0.10709514	     -6.78195536	      7.64946069	     19.27460535	     -6.68502275	     18.44158219	    -11.15274682	      0.00000000	     26.25708743	      0.53726550	      3.19186863	    -28.20509876	      6.18396424	    -15.83048752	      0.00000000	    -18.23830258	      4.34639647	     -0.46516352
      6.43000000	     -0.85379896	     -3.02550482	     -4.17931275	     -1.39278624	      0.70401208	      0.10654964	     -8.10618994	      7.74978530	     19.25670067	     -6.82266490	     18.95311448	    -10.38314440	      0.00000000	     24.37986920	      0.10541311	      5.18689844	    -22.19874583	      5.54867506	    -16.64200487	      0.00000000	    -18.92395906	      4.63766497	      0.12180401
